<?xml version="1.0" encoding="UTF-8"?>
<svg id="Layer_2" data-name="Layer 2" xmlns="http://www.w3.org/2000/svg" viewBox="0 0 111.84 60.39">
  <defs>
    <style>
      .cls-1 {
        fill: #3f4727;
      }

      .cls-1, .cls-2 {
        stroke-width: 0px;
      }

      .cls-2 {
        fill: #b47f00;
      }
    </style>
  </defs>
  <g id="Layer_1-2" data-name="Layer 1">
    <g id="bonecho_horizontal_POS_RGB">
      <g>
        <path class="cls-2" d="m85.28,55.55h.6c.91,0,1.26-.37,1.26-1.35,0-.45-.14-.85-.36-1.06-.19-.19-.42-.24-.9-.24h-.6v2.65Zm.6-4.11c1.29,0,1.79.09,2.29.44.68.45,1.05,1.31,1.05,2.36s-.37,1.94-1.02,2.37c-.52.35-1.07.47-2.22.47h-.7v3.29h-1.96v-8.95h2.56v.02Z"/>
        <path class="cls-2" d="m92.81,53.36l.9,3.64h-1.77l.87-3.64Zm1.16-1.92h-1.99l-2.68,8.95h1.82l.43-1.84h2.53l.44,1.84h2.01l-2.55-8.95h-.01Z"/>
        <path class="cls-2" d="m99.63,55.41h.86c.76,0,1.15-.45,1.15-1.3,0-.43-.14-.79-.38-1-.17-.15-.42-.21-.85-.21h-.78v2.52h0Zm.85-3.97c1.21,0,1.59.09,2.12.47.62.47.97,1.26.97,2.23,0,1.14-.36,1.79-1.26,2.33l1.65,3.9h-2.14l-1.2-3.53h-.98v3.53h-1.95v-8.95h2.8v.02h-.01Z"/>
        <polygon class="cls-2" points="105.55 51.42 105.55 60.36 107.5 60.36 107.5 57.34 108.24 56.26 109.82 60.38 111.84 60.38 109.41 54.72 111.65 51.44 109.66 51.44 107.48 55.16 107.48 51.44 107.5 51.42 105.55 51.42"/>
      </g>
      <path class="cls-1" d="m4.29,4.94c0,.43.02.85.03,1.28-.93.05-1.86.1-2.78.13,0,.65.03,1.29.04,1.95.72-.03,1.43-.06,2.15-.09,0,.43.02.85.03,1.28-.72.04-1.43.07-2.15.09.02.98-.05,1.95-.02,2.93-.55.02-1.01.04-1.55.06C0,10.08.1,7.59.04,5.1c1.47-.03,2.78-.09,4.26-.17h-.01Z"/>
      <path class="cls-1" d="m7.13,8.16c.24-.02.48-.04.72-.06.63-.05.95-.46.94-1.17,0-.36-.13-.65-.34-.81-.15-.11-.35-.15-.71-.12-.22.02-.43.03-.65.05.01.7.03,1.4.04,2.1h0Zm.64-3.36c1.01-.08,1.33-.03,1.78.25.52.34.82.98.84,1.79.02.95-.27,1.53-1.01,2.04.48,1.05.99,2.16,1.48,3.21-.6.06-1.23.06-1.82.11-.35-.95-.71-1.93-1.06-2.88-.27.02-.55.04-.81.06.02.98.04,1.93.06,2.91-.55.04-1.09.06-1.64.09-.05-2.49-.1-4.92-.15-7.41.78-.05,1.56-.11,2.34-.17h-.01Z"/>
      <path class="cls-1" d="m13.57,4.39c.05,2.48.1,5,.15,7.48-.56.05-1.08.07-1.63.12-.05-2.48-.11-4.95-.16-7.43.55-.06,1.09-.11,1.64-.17"/>
      <path class="cls-1" d="m19.72,3.73c0,.43.02.85.03,1.28-.97.13-1.93.25-2.9.36,0,.57.02,1.15.04,1.72.75-.09,1.51-.19,2.27-.28,0,.43.02.85.03,1.28-.76.1-1.51.19-2.27.28,0,.61.05,1.31.06,1.92.97-.12,1.94-.15,2.9-.27,0,.44.02.88.03,1.33-1.51.17-3.35.26-4.56.37-.05-2.48-.1-4.97-.15-7.45,1.51-.18,3.02-.36,4.53-.56h0v.02Z"/>
      <path class="cls-1" d="m22.88,3.31c.67,1.46,1.33,2.91,2,4.36-.03-1.54-.06-3.08-.1-4.63.42-.06.85-.12,1.27-.18.05,2.48.11,5.39.16,7.87-.49.07-.81.08-1.29.15-.79-1.7-1.76-3.76-2.54-5.45.04,1.79.08,3.89.11,5.69-.4.04-.9.09-1.27.11-.05-2.48-.1-5.2-.16-7.69.61-.08,1.22-.16,1.82-.25h0v.02Z"/>
      <path class="cls-1" d="m29.4,9.07c.1-.01.19-.03.28-.04.6-.08.87-.23,1.13-.65.27-.43.37-1.61.35-2.58-.02-.97-.19-1.57-.52-1.9-.26-.26-.52-.32-1.08-.25-.1,0-.19.03-.28.04.03,1.63.09,3.75.12,5.37m-.02-6.67c1.11-.15,1.76-.08,2.31.26.75.44,1.18,1.5,1.21,2.94.03,1.55-.42,3.39-1.25,4.07-.51.41-.91.57-1.91.71-.66.09-1.29.11-1.95.2-.05-2.48-.12-5.46-.17-7.94.59-.08,1.18-.16,1.76-.23h0Z"/>
      <path class="cls-1" d="m37.37,4.04c-.22-.63-.55-.86-1.07-.8-.46.06-.77.37-.77.77s.23.57,1.3.83c.74.2,1.01.29,1.33.53.49.33.75.85.77,1.53.03,1.43-1.02,2.5-2.6,2.69-1.38.17-2.23-.38-2.64-1.72.47-.2.95-.39,1.42-.59.23.76.6,1.05,1.23.97.57-.07.94-.44.93-.92,0-.42-.27-.63-1.05-.81-.95-.22-1.2-.31-1.57-.57-.45-.33-.72-.84-.73-1.47-.03-1.36.9-2.4,2.35-2.58.66-.08,1.24.03,1.67.32.36.24.55.52.77,1.12-.45.23-.9.45-1.35.69h0Z"/>
      <path class="cls-1" d="m44.36,4.61c.06,1.89.33,2.5,1.07,2.43.74-.07.96-.73.9-2.61-.06-1.85-.34-2.48-1.06-2.41-.74.07-.97.73-.91,2.59m2.69-3.36c.63.61.95,1.59,1,3.06.09,2.53-.8,3.9-2.58,4.07-1.77.17-2.75-1.03-2.83-3.53-.09-2.58.78-3.97,2.61-4.15.72-.07,1.36.14,1.8.56h0Z"/>
      <path class="cls-1" d="m53.92,0c0,.43.02.73.03,1.16-.93.02-1.86.15-2.78.19,0,.65.03,1.29.04,1.95.72-.03,1.43-.13,2.15-.15,0,.43.02.86.03,1.28-.72.02-1.43.11-2.15.15l.06,2.94c-.55.09-1.07.19-1.64.25-.05-2.49-.1-5.03-.15-7.51,1.47-.08,2.95-.22,4.42-.25h-.01Z"/>
      <g>
        <path class="cls-1" d="m7.95,35.68c0,.58-.48,1.08-1.06,1.1-.88.03-1.76.05-2.65.07v-14.95c.88-.02,1.76-.04,2.65-.07.59-.02,1.06.44,1.06,1.02v12.84h0Zm0,14.75c0,.58-.48,1.08-1.06,1.1-.88.03-1.76.05-2.65.07v-11.03c.88-.02,1.76-.04,2.65-.07.59-.02,1.06.44,1.06,1.02v8.91Zm.53-32.37c-2.82.11-5.66.17-8.48.17v37.13c2.82,0,5.66-.06,8.48-.17,2.07-.08,3.72-1.81,3.72-3.88v-9.44c0-1.27,0-3.44-2.33-3.33,2.33-.11,2.33-2.24,2.33-3.56v-13.37c0-2.07-1.65-3.62-3.72-3.54"/>
        <path class="cls-1" d="m75.76,10.35c-1.59.2-3.19.39-4.78.6-2.07.26-3.72,2.13-3.72,4.2v29.7c0,2.07,1.65,3.49,3.72,3.23,1.59-.21,3.19-.4,4.78-.6,2.07-.25,3.72-2.08,3.72-4.15v-6.05c-1.41.16-2.82.33-4.25.5v6.05c-1.24.15-2.47.3-3.72.46V14.59c1.24-.16,2.47-.31,3.72-.46v19.31c1.41-.18,2.82-.34,4.25-.5V13.63c0-2.07-1.65-3.53-3.72-3.28"/>
        <path class="cls-1" d="m23.9,42.47c-1.24.12-2.47.23-3.72.32v-21.74c1.24-.1,2.47-.22,3.72-.32v21.74Zm.53-25.5c-1.59.15-3.19.29-4.78.42-2.07.17-3.72,1.92-3.72,3.99v21.74c0,2.07,1.65,3.6,3.72,3.43,1.59-.13,3.19-.26,4.78-.42,2.07-.2,3.72-2.02,3.72-4.09v-21.74c0-2.07-1.65-3.54-3.72-3.34h0Z"/>
        <path class="cls-1" d="m107.25,41.29c-1.24.03-2.47.06-3.72.11V11.7c1.24-.05,2.47-.08,3.72-.11v29.7Zm.53-33.42c-1.59.03-3.19.08-4.78.14-2.07.08-3.72,1.81-3.72,3.88v29.7c0,2.07,1.65,3.62,3.72,3.54,1.59-.06,3.19-.11,4.78-.14,2.07-.04,3.72-1.68,3.72-3.75V11.55c0-2.07-1.65-3.72-3.72-3.68"/>
        <path class="cls-1" d="m91.29,27.3c-1.24.1-2.47.22-3.72.32V9.07c-1.41.14-2.82.27-4.25.42v37.12c.53-.06,1.07-.11,1.6-.17.71-.07,2.36-.23,2.9-.27.12,0-.05-.26-.07-.37-.02-.1-.21-.09-.93-.17-.26-.03-.41-.04-.46-.14-.05-.09,0-.2.03-.25.26-.53,1.3-.65,1.83-1.09.04-.03.12-.11.18-.23.07-.15.1-.39-.03-.54-.12-.15-.36-.13-.64-.1-1.08.14-1.36.46-1.99.39-.36-.04-.68-.25-.8-.4-.06-.07.19-.42.45-.4.26.02,1.67-.45,2-.78.33-.33,1.16-.83,1.16-.83.07-.12.15-.32.19-.57.05-.33.02-.88-.23-.97-.14-.05-.22.09-.54.21-.39.14-.95.18-1.12-.06-.13-.19.05-.51.07-.59.08-.3,1.63-1,1.86-1.1.5-.22.17-1.32.26-1.6,0-.02.04-.1,0-.13-.03-.03-.1,0-.12.02-.16.07-.67.28-1.02.11-.19-.09-.35-.33-.35-.54,0-.24,1.38-.86,1.62-1.02.25-.15.09-.6-.06-.67-.15-.07-.66.04-.66.04,0,0-.71.02-.79-.06-.1-.09.21-.67.23-.76.02-.09,1.38-.61,1.38-.61.04-.29.06-.66.1-.96-.07.04-.26.14-.49.09-.04,0-.12-.03-.2-.08-.15-.11-.25-.31-.19-.47.04-.1.13-.15.21-.2.16-.1.37-.26.6-.54.03-.04.08-.11.13-.21.19-.38.08-.73.26-.83.01,0,.05-.03.1-.02.11.02.15.16.25.33.09.15.12.13.28.34.16.21.23.39.3.48.27.34.91.9.86,1.05-.08.25-1.19-.32-1.19.04,0,.15.04,1.25.04,1.25.04.02.11.05.19.09.72.31,1.02.27,1.14.5.1.17.1.51-.08.57-.25.09-1.15-.18-1.15-.18,0,0,.11.49.11.54,0,.54,1.09.81,1.21.85.02,0,.1.03.15.1.01.02.02.04.03.07.02.05.12.34.02.48-.13.19-.65.18-1-.03-.16-.1-.18-.13-.35-.11,0,0-.12.03-.21.13-.08.09-.09.25.02.61.15.47.23.72.47.94.46.42.89.16,1.15.56.1.15.18.42.07.59-.05.08-.14.12-.19.15-.08.04-.2.08-.41.07-.28,0-.48-.08-.81-.13-.02,0-.06,0-.09,0-.1.08.02.38.05.47.11.38.08.83.14,1.31.02.14.18.29.37.42.29.2.39.11.84.18.5.07.98.22,1.34.55.19.17.23.54.52.72.05.03.19.07.22.17.02.07-.03.14-.05.16-.06.09-.14.09-.28.15-.87.34-1.37.33-1.67.24,0,0-.41-.12-.93-.02-.08.02-.12.05-.14.06-.08.04-.1.13-.11.17-.06.21.13.44.28.62.42.49.5.62.61.72,0,0,.05.05.11.09.4.31.97.5,1.29.6.77-.06,1.55-.12,2.33-.17V8.41c-1.41.1-2.82.21-4.25.32v18.56"/>
        <path class="cls-1" d="m55.11,50.25c2.84-.39,5.7-.79,8.54-1.19v-3.72c-1.43.2-2.86.39-4.29.59v-11.14c1.06-.15,2.12-.29,3.19-.44v-3.72c-1.06.15-2.12.29-3.19.44v-14.85c1.43-.2,2.86-.39,4.29-.59v-3.72c-2.84.39-5.7.78-8.54,1.19v37.13h0v.02Z"/>
        <path class="cls-1" d="m41.32,37.97c-1.7-7.43-3.39-14.88-5.09-22.32-1.41.18-2.82.34-4.25.5v37.12c1.41-.16,2.82-.33,4.25-.5v-21.47c1.7,6.95,3.39,13.89,5.09,20.84,1.41-.19,2.82-.37,4.25-.56V14.44c-1.41.19-2.82.38-4.25.56v22.96h0Z"/>
        <path class="cls-1" d="m28.55,50.33c-.16-.45-.34-.78-.49-.99-.04.08-.1.21-.19.35,0,0-.23.34-.57.59-.97.69-2.76.87-2.76.87-.39.04-.76.07-1.14.1-.97.08-1.88.15-2.73.21-.39.03-.77.05-1.14.08,0,0-1.78.09-2.85-.44-.37-.19-.65-.49-.65-.49-.12-.13-.2-.25-.25-.32-.11.23-.26.58-.33,1.05-.05.29-.27,1.56.23,2.44.61,1.08,1.98,1.02,2.83.97.11,0,.19,0,.26-.02,1.17-.1,2.33-.19,3.49-.28,1.17-.09,2.33-.17,3.5-.26.08,0,.16,0,.26-.02.84-.09,2.21-.23,2.65-1.39.36-.95-.05-2.17-.15-2.45h.03Z"/>
      </g>
    </g>
  </g>
</svg>